<!-- icon666.com - MILLIONS vector ICONS FREE --><svg viewBox="0 0 32 32" xmlns="http://www.w3.org/2000/svg" xmlns:xlink="http://www.w3.org/1999/xlink"><linearGradient id="linear-gradient" gradientUnits="userSpaceOnUse" x1="15.888" x2="16.112" y1="1.5" y2="30.5"><stop offset="0" stop-color="#09c6f9"></stop><stop offset="1" stop-color="#045de9"></stop></linearGradient><g id="home"><circle cx="16" cy="16" fill="url(#linear-gradient)" r="14.5"></circle><path d="m17.771 23.25v-5.178a.637.637 0 0 0 -.635-.636h-2.272a.637.637 0 0 0 -.635.636v5.178zm1 0h1.771a1.771 1.771 0 0 0 1.772-1.771v-6.814a.5.5 0 0 1 .5-.5h1.1a.378.378 0 0 0 .227-.681l-7.848-5.884a.482.482 0 0 0 -.273-.1h-.02a.489.489 0 0 0 -.293.1l-7.849 5.884a.378.378 0 0 0 .227.681h1.1a.5.5 0 0 1 .5.5v6.814a1.771 1.771 0 0 0 1.772 1.771h1.771v-5.178a1.637 1.637 0 0 1 1.635-1.636h2.272a1.637 1.637 0 0 1 1.635 1.636zm-2.766-16.75h-.029a1.484 1.484 0 0 0 -.869.3l-7.849 5.884a1.378 1.378 0 0 0 .827 2.481h.6v6.314a2.772 2.772 0 0 0 2.772 2.771h9.084a2.772 2.772 0 0 0 2.772-2.771v-6.314h.6a1.378 1.378 0 0 0 .827-2.481l-7.847-5.884a1.48 1.48 0 0 0 -.864-.3z" fill="#fff" fill-rule="evenodd"></path></g></svg>